<?xml version="1.0" standalone="no"?>
<!DOCTYPE svg PUBLIC "-//W3C//DTD SVG 20010904//EN"
 "http://www.w3.org/TR/2001/REC-SVG-20010904/DTD/svg10.dtd">
<svg version="1.0" xmlns="http://www.w3.org/2000/svg"
 width="492.000000pt" height="492.000000pt" viewBox="0 0 492.000000 492.000000"
 preserveAspectRatio="xMidYMid meet">
<metadata>
Created by potrace 1.11, written by Peter Selinger 2001-2013
</metadata>
<g transform="translate(0.000000,492.000000) scale(0.100000,-0.100000)"
fill="#000000" stroke="none">
<path d="M2300 3111 l0 -159 245 -138 244 -139 1 -332 0 -331 -245 -129 -245
-128 0 -168 0 -169 48 27 c26 14 206 115 400 223 l352 197 -2 479 -3 478 -345
195 c-190 107 -369 207 -397 224 l-53 29 0 -159z"/>
<path d="M1865 3041 l-390 -219 -2 -479 -3 -478 386 -215 c211 -118 389 -217
395 -218 6 -3 8 56 7 159 l-3 163 -225 119 c-124 65 -235 125 -248 133 l-22
15 2 326 3 326 247 141 248 141 0 153 c0 83 -1 152 -3 152 -1 0 -178 -99 -392
-219z"/>
<path d="M2088 2782 c-103 -64 -184 -120 -180 -123 4 -4 88 -52 187 -107 l180
-101 3 115 c1 63 1 164 0 224 l-3 108 -187 -116z"/>
<path d="M2290 2676 c0 -120 3 -215 8 -213 136 74 344 192 347 197 3 4 -66 52
-153 106 -86 54 -167 104 -179 112 l-23 14 0 -216z"/>
</g>
</svg>
